HIERARCHY
ROOT Hips
{
    OFFSET 0.000 0 0.000
    CHANNELS 6 Xposition Yposition Zposition Zrotation Xrotation Yrotation
    JOINT RightUpLeg
    {
        OFFSET -10.000 -1.689 0.000
        CHANNELS 3 Zrotation Xrotation Yrotation
        JOINT RightLeg
        {
            OFFSET 0.000 -44.370 0.000
            CHANNELS 3 Zrotation Xrotation Yrotation
            JOINT RightFoot
            {
                OFFSET 0.000 -44.370 0.000
                CHANNELS 3 Zrotation Xrotation Yrotation
                End Site
                {
                    OFFSET 0.000 -8.000 18.200
                }
            }
        }
    }
    JOINT LeftUpLeg
    {
        OFFSET 10.000 -1.689 0.000
        CHANNELS 3 Zrotation Xrotation Yrotation
        JOINT LeftLeg
        {
            OFFSET 0.000 -44.370 0.000
            CHANNELS 3 Zrotation Xrotation Yrotation
            JOINT LeftFoot
            {
                OFFSET 0.000 -44.370 0.000
                CHANNELS 3 Zrotation Xrotation Yrotation
                End Site
                {
                    OFFSET 0.000 -8.000 18.200
                }
            }
        }
    }
    JOINT Spine
    {
        OFFSET 0.000 15.204 0.000
        CHANNELS 3 Zrotation Xrotation Yrotation
        JOINT Spine1
        {
            OFFSET 0.000 10.327 0.000
            CHANNELS 3 Zrotation Xrotation Yrotation
            JOINT Spine2
            {
                OFFSET 0.000 10.754 0.000
                CHANNELS 3 Zrotation Xrotation Yrotation
                JOINT Spine3
                {
                    OFFSET 0.000 10.327 0.000
                    CHANNELS 3 Zrotation Xrotation Yrotation
                    JOINT Neck
                    {
                        OFFSET 0.000 11.038 0.000
                        CHANNELS 3 Zrotation Xrotation Yrotation
                        JOINT Head
                        {
                            OFFSET 0.000 9.970 0.000
                            CHANNELS 3 Zrotation Xrotation Yrotation
                            End Site
                            {
                                OFFSET 0.000 16.950 0.000
                            }
                        }
                    }
                    JOINT RightShoulder
                    {
                        OFFSET -3.350 7.359 0.000
                        CHANNELS 3 Zrotation Xrotation Yrotation
                        JOINT RightArm
                        {
                            OFFSET -13.400 0.000 0.000
                            CHANNELS 3 Zrotation Xrotation Yrotation
                            JOINT RightForeArm
                            {
                                OFFSET -28.000 0.000 0.000
                                CHANNELS 3 Zrotation Xrotation Yrotation
                                JOINT RightHand
                                {
                                    OFFSET -27.500 0.000 0.000
                                    CHANNELS 3 Zrotation Xrotation Yrotation
                                    JOINT RightHandThumb1
                                    {
                                        OFFSET -2.631 0.201 3.299
                                        CHANNELS 3 Zrotation Xrotation Yrotation
                                        JOINT RightHandThumb2
                                        {
                                            OFFSET -3.893 0.000 0.000
                                            CHANNELS 3 Zrotation Xrotation Yrotation
                                            JOINT RightHandThumb3
                                            {
                                                OFFSET -2.705 0.000 0.000
                                                CHANNELS 3 Zrotation Xrotation Yrotation
                                                End Site
                                                {
                                                    OFFSET -2.319 0.000 0.000
                                                }
                                            }
                                        }
                                    }
                                    JOINT RightInHandIndex
                                    {
                                        OFFSET -3.408 0.537 2.091
                                        CHANNELS 3 Zrotation Xrotation Yrotation
                                        JOINT RightHandIndex1
                                        {
                                            OFFSET -5.515 -0.097 1.056
                                            CHANNELS 3 Zrotation Xrotation Yrotation
                                            JOINT RightHandIndex2
                                            {
                                                OFFSET -3.826 0.000 0.000
                                                CHANNELS 3 Zrotation Xrotation Yrotation
                                                JOINT RightHandIndex3
                                                {
                                                    OFFSET -2.169 0.000 0.000
                                                    CHANNELS 3 Zrotation Xrotation Yrotation
                                                    End Site
                                                    {
                                                        OFFSET -1.908 0.000 0.000
                                                    }
                                                }
                                            }
                                        }
                                    }
                                    JOINT RightInHandMiddle
                                    {
                                        OFFSET -3.575 0.547 0.800
                                        CHANNELS 3 Zrotation Xrotation Yrotation
                                        JOINT RightHandMiddle1
                                        {
                                            OFFSET -5.470 -0.089 0.332
                                            CHANNELS 3 Zrotation Xrotation Yrotation
                                            JOINT RightHandMiddle2
                                            {
                                                OFFSET -4.175 0.000 0.000
                                                CHANNELS 3 Zrotation Xrotation Yrotation
                                                JOINT RightHandMiddle3
                                                {
                                                    OFFSET -2.617 0.000 0.000
                                                    CHANNELS 3 Zrotation Xrotation Yrotation
                                                    End Site
                                                    {
                                                        OFFSET -2.088 0.000 0.000
                                                    }
                                                }
                                            }
                                        }
                                    }
                                    JOINT RightInHandRing
                                    {
                                        OFFSET -3.557 0.569 -0.136
                                        CHANNELS 3 Zrotation Xrotation Yrotation
                                        JOINT RightHandRing1
                                        {
                                            OFFSET -4.900 -0.023 -0.506
                                            CHANNELS 3 Zrotation Xrotation Yrotation
                                            JOINT RightHandRing2
                                            {
                                                OFFSET -3.639 0.000 0.000
                                                CHANNELS 3 Zrotation Xrotation Yrotation
                                                JOINT RightHandRing3
                                                {
                                                    OFFSET -2.525 0.000 0.000
                                                    CHANNELS 3 Zrotation Xrotation Yrotation
                                                    End Site
                                                    {
                                                        OFFSET -1.963 0.000 0.000
                                                    }
                                                }
                                            }
                                        }
                                    }
                                    JOINT RightInHandPinky
                                    {
                                        OFFSET -3.342 0.496 -1.270
                                        CHANNELS 3 Zrotation Xrotation Yrotation
                                        JOINT RightHandPinky1
                                        {
                                            OFFSET -4.378 -0.023 -1.153
                                            CHANNELS 3 Zrotation Xrotation Yrotation
                                            JOINT RightHandPinky2
                                            {
                                                OFFSET -2.914 0.000 0.000
                                                CHANNELS 3 Zrotation Xrotation Yrotation
                                                JOINT RightHandPinky3
                                                {
                                                    OFFSET -1.841 0.000 0.000
                                                    CHANNELS 3 Zrotation Xrotation Yrotation
                                                    End Site
                                                    {
                                                        OFFSET -1.739 0.000 0.000
                                                    }
                                                }
                                            }
                                        }
                                    }
                                }
                            }
                        }
                    }
                    JOINT LeftShoulder
                    {
                        OFFSET 3.350 7.359 0.000
                        CHANNELS 3 Zrotation Xrotation Yrotation
                        JOINT LeftArm
                        {
                            OFFSET 13.400 0.000 0.000
                            CHANNELS 3 Zrotation Xrotation Yrotation
                            JOINT LeftForeArm
                            {
                                OFFSET 28.000 0.000 0.000
                                CHANNELS 3 Zrotation Xrotation Yrotation
                                JOINT LeftHand
                                {
                                    OFFSET 27.500 0.000 0.000
                                    CHANNELS 3 Zrotation Xrotation Yrotation
                                    JOINT LeftHandThumb1
                                    {
                                        OFFSET 2.631 0.201 3.299
                                        CHANNELS 3 Zrotation Xrotation Yrotation
                                        JOINT LeftHandThumb2
                                        {
                                            OFFSET 3.893 0.000 0.000
                                            CHANNELS 3 Zrotation Xrotation Yrotation
                                            JOINT LeftHandThumb3
                                            {
                                                OFFSET 2.705 0.000 0.000
                                                CHANNELS 3 Zrotation Xrotation Yrotation
                                                End Site
                                                {
                                                    OFFSET 2.319 0.000 0.000
                                                }
                                            }
                                        }
                                    }
                                    JOINT LeftInHandIndex
                                    {
                                        OFFSET 3.408 0.537 2.091
                                        CHANNELS 3 Zrotation Xrotation Yrotation
                                        JOINT LeftHandIndex1
                                        {
                                            OFFSET 5.515 -0.097 1.056
                                            CHANNELS 3 Zrotation Xrotation Yrotation
                                            JOINT LeftHandIndex2
                                            {
                                                OFFSET 3.826 0.000 0.000
                                                CHANNELS 3 Zrotation Xrotation Yrotation
                                                JOINT LeftHandIndex3
                                                {
                                                    OFFSET 2.169 0.000 0.000
                                                    CHANNELS 3 Zrotation Xrotation Yrotation
                                                    End Site
                                                    {
                                                        OFFSET 1.908 0.000 0.000
                                                    }
                                                }
                                            }
                                        }
                                    }
                                    JOINT LeftInHandMiddle
                                    {
                                        OFFSET 3.575 0.547 0.800
                                        CHANNELS 3 Zrotation Xrotation Yrotation
                                        JOINT LeftHandMiddle1
                                        {
                                            OFFSET 5.470 -0.089 0.332
                                            CHANNELS 3 Zrotation Xrotation Yrotation
                                            JOINT LeftHandMiddle2
                                            {
                                                OFFSET 4.175 0.000 0.000
                                                CHANNELS 3 Zrotation Xrotation Yrotation
                                                JOINT LeftHandMiddle3
                                                {
                                                    OFFSET 2.617 0.000 0.000
                                                    CHANNELS 3 Zrotation Xrotation Yrotation
                                                    End Site
                                                    {
                                                        OFFSET 2.088 0.000 0.000
                                                    }
                                                }
                                            }
                                        }
                                    }
                                    JOINT LeftInHandRing
                                    {
                                        OFFSET 3.557 0.569 -0.136
                                        CHANNELS 3 Zrotation Xrotation Yrotation
                                        JOINT LeftHandRing1
                                        {
                                            OFFSET 4.900 -0.023 -0.506
                                            CHANNELS 3 Zrotation Xrotation Yrotation
                                            JOINT LeftHandRing2
                                            {
                                                OFFSET 3.639 0.000 0.000
                                                CHANNELS 3 Zrotation Xrotation Yrotation
                                                JOINT LeftHandRing3
                                                {
                                                    OFFSET 2.525 0.000 0.000
                                                    CHANNELS 3 Zrotation Xrotation Yrotation
                                                    End Site
                                                    {
                                                        OFFSET 1.963 0.000 0.000
                                                    }
                                                }
                                            }
                                        }
                                    }
                                    JOINT LeftInHandPinky
                                    {
                                        OFFSET 3.342 0.496 -1.270
                                        CHANNELS 3 Zrotation Xrotation Yrotation
                                        JOINT LeftHandPinky1
                                        {
                                            OFFSET 4.378 -0.023 -1.153
                                            CHANNELS 3 Zrotation Xrotation Yrotation
                                            JOINT LeftHandPinky2
                                            {
                                                OFFSET 2.914 0.000 0.000
                                                CHANNELS 3 Zrotation Xrotation Yrotation
                                                JOINT LeftHandPinky3
                                                {
                                                    OFFSET 1.841 0.000 0.000
                                                    CHANNELS 3 Zrotation Xrotation Yrotation
                                                    End Site
                                                    {
                                                        OFFSET 1.739 0.000 0.000
                                                    }
                                                }
                                            }
                                        }
                                    }
                                }
                            }
                        }
                    }
                }
            }
        }
    }
}
MOTION
Frames: 4
Frame Time: 0.0333
2.114048 98.018311 -4.732364 -0.282168 4.182369 -169.142471 1.200868 -4.269607 1.330029 -0.000000 23.966084 0.000000 -1.638471 -15.159796 -2.665721 -0.365252 -6.120175 -12.597198 -0.000000 25.526724 0.000000 -1.736805 -16.314552 -3.337044 1.413098 6.890835 -3.538670 0.312227 1.740282 -0.845982 0.532577 2.889111 -1.392937 -0.111372 0.063909 0.591989 -0.111487 0.065280 0.593187 -2.131093 1.202795 10.737853 1.384449 -1.792430 4.931501 83.817230 12.597478 5.983779 -1.329782 1.199970 4.313071 -6.942130 22.309456 3.648480 28.184042 10.729352 19.159164 -0.000000 0.000000 -10.000000 -0.000000 0.000000 -10.000000 -0.000000 0.000000 -0.000000 19.981762 0.871897 2.396401 24.000000 0.000000 -0.000000 20.000000 0.000000 -0.000000 -0.000000 0.000000 -0.000000 20.000000 0.000000 -0.000000 24.000000 0.000000 -0.000000 20.000000 0.000000 -0.000000 -0.000000 0.000000 -0.000000 19.974758 -1.025646 -2.819379 24.000000 0.000000 -0.000000 20.000000 0.000000 -0.000000 -0.000000 0.000000 -0.000000 19.781452 -3.009481 -8.305146 24.000000 0.000000 -0.000000 20.000000 0.000000 -0.000000 -0.873485 -0.809882 2.678668 -85.603127 7.189048 -5.490658 -1.691040 9.303471 -7.074112 5.910549 -10.558624 1.586469 -28.184042 10.729352 -19.159164 -0.000000 0.000000 10.000000 -0.000000 0.000000 10.000000 -0.000000 0.000000 -0.000000 -19.981762 0.871897 -2.396401 -24.000000 0.000000 -0.000000 -20.000000 0.000000 -0.000000 -0.000000 0.000000 -0.000000 -20.000000 0.000000 -0.000000 -24.000000 0.000000 -0.000000 -20.000000 0.000000 -0.000000 -0.000000 0.000000 -0.000000 -19.974758 -1.025646 2.819379 -24.000000 0.000000 -0.000000 -20.000000 0.000000 -0.000000 -0.000000 0.000000 -0.000000 -19.781452 -3.009481 8.305146 -24.000000 0.000000 -0.000000 -20.000000 0.000000 -0.000000 
2.105348 98.019249 -4.786348 -0.273957 4.211475 -169.363281 1.212124 -4.232177 1.450595 -0.000000 23.973272 0.000001 -1.644383 -15.185829 -2.588818 -0.391380 -6.029234 -12.673153 -0.000000 25.519125 0.000000 -1.714857 -16.366655 -3.045952 1.434613 6.783597 -3.548476 0.318138 1.713949 -0.848305 0.542274 2.846148 -1.396672 -0.110994 0.068370 0.595373 -0.111109 0.069748 0.596583 -2.132299 1.283443 10.800421 1.471152 -1.800929 4.812837 83.755440 12.550239 5.910246 -1.381256 1.190208 4.250535 -6.968573 22.318361 3.648257 28.184042 10.729352 19.159164 -0.000000 0.000000 -10.000000 -0.000000 0.000000 -10.000000 -0.000000 0.000000 -0.000000 19.981762 0.871897 2.396401 24.000000 0.000000 -0.000000 20.000000 0.000000 -0.000000 -0.000000 0.000000 -0.000000 20.000000 0.000000 -0.000000 24.000000 0.000000 -0.000000 20.000000 0.000000 -0.000000 -0.000000 0.000000 -0.000000 19.974758 -1.025646 -2.819379 24.000000 0.000000 -0.000000 20.000000 0.000000 -0.000000 -0.000000 0.000000 -0.000000 19.781452 -3.009481 -8.305146 24.000000 0.000000 -0.000000 20.000000 0.000000 -0.000000 -0.884772 -0.759856 2.639392 -85.610687 7.361785 -5.610729 -1.624718 9.272406 -7.154868 5.905069 -10.611968 1.531647 -28.184042 10.729352 -19.159164 -0.000000 0.000000 10.000000 -0.000000 0.000000 10.000000 -0.000000 0.000000 -0.000000 -19.981762 0.871897 -2.396401 -24.000000 0.000000 -0.000000 -20.000000 0.000000 -0.000000 -0.000000 0.000000 -0.000000 -20.000000 0.000000 -0.000000 -24.000000 0.000000 -0.000000 -20.000000 0.000000 -0.000000 -0.000000 0.000000 -0.000000 -19.974758 -1.025646 2.819379 -24.000000 0.000000 -0.000000 -20.000000 0.000000 -0.000000 -0.000000 0.000000 -0.000000 -19.781452 -3.009481 8.305146 -24.000000 0.000000 -0.000000 -20.000000 0.000000 -0.000000 
2.102522 98.020851 -4.814277 -0.284167 4.258555 -169.459579 1.214192 -4.179253 1.514258 0.000000 23.976488 0.000000 -1.651099 -15.187652 -2.547296 -0.376600 -5.963191 -12.551533 0.000000 25.495686 -0.000000 -1.679158 -16.348789 -3.042189 1.443581 6.709668 -3.601088 0.320251 1.695877 -0.861594 0.545881 2.816624 -1.418759 -0.107265 0.071208 0.596530 -0.107376 0.072548 0.597742 -2.069264 1.333187 10.821906 1.536987 -1.821615 4.746196 83.702431 12.456039 5.852450 -1.403004 1.213984 4.177089 -6.995334 22.318926 3.614626 28.184042 10.729352 19.159164 -0.000000 0.000000 -10.000000 -0.000000 0.000000 -10.000000 -0.000000 0.000000 -0.000000 19.981762 0.871897 2.396401 24.000000 0.000000 -0.000000 20.000000 0.000000 -0.000000 -0.000000 0.000000 -0.000000 20.000000 0.000000 -0.000000 24.000000 0.000000 -0.000000 20.000000 0.000000 -0.000000 -0.000000 0.000000 -0.000000 19.974758 -1.025646 -2.819379 24.000000 0.000000 -0.000000 20.000000 0.000000 -0.000000 -0.000000 0.000000 -0.000000 19.781452 -3.009481 -8.305146 24.000000 0.000000 -0.000000 20.000000 0.000000 -0.000000 -0.871448 -0.716729 2.573231 -85.599670 7.527117 -5.774916 -1.576434 9.159372 -7.253664 5.890681 -10.658074 1.471641 -28.184042 10.729352 -19.159164 -0.000000 0.000000 10.000000 -0.000000 0.000000 10.000000 -0.000000 0.000000 -0.000000 -19.981762 0.871897 -2.396401 -24.000000 0.000000 -0.000000 -20.000000 0.000000 -0.000000 -0.000000 0.000000 -0.000000 -20.000000 0.000000 -0.000000 -24.000000 0.000000 -0.000000 -20.000000 0.000000 -0.000000 -0.000000 0.000000 -0.000000 -19.974758 -1.025646 2.819379 -24.000000 0.000000 -0.000000 -20.000000 0.000000 -0.000000 -0.000000 0.000000 -0.000000 -19.781452 -3.009481 8.305146 -24.000000 0.000000 -0.000000 -20.000000 0.000000 -0.000000 
2.118863 98.017143 -4.806741 -0.304149 4.312762 -169.609909 1.223330 -4.168499 1.658493 0.000000 24.031742 -0.000000 -1.651550 -15.190350 -2.546354 -0.338385 -5.929608 -12.277112 0.000000 25.495419 -0.000000 -1.660294 -16.293459 -3.125074 1.436942 6.636237 -3.580890 0.319271 1.677404 -0.857048 0.544073 2.786326 -1.411368 -0.099729 0.070443 0.593303 -0.099829 0.071691 0.594497 -1.929813 1.315920 10.762323 1.599973 -1.864239 4.643855 83.693108 12.239593 5.763559 -1.467669 1.278961 4.077747 -6.997466 22.310724 3.600255 28.184042 10.729352 19.159164 -0.000000 0.000000 -10.000000 -0.000000 0.000000 -10.000000 -0.000000 0.000000 -0.000000 19.981762 0.871897 2.396401 24.000000 0.000000 -0.000000 20.000000 0.000000 -0.000000 -0.000000 0.000000 -0.000000 20.000000 0.000000 -0.000000 24.000000 0.000000 -0.000000 20.000000 0.000000 -0.000000 -0.000000 0.000000 -0.000000 19.974758 -1.025646 -2.819379 24.000000 0.000000 -0.000000 20.000000 0.000000 -0.000000 -0.000000 0.000000 -0.000000 19.781452 -3.009481 -8.305146 24.000000 0.000000 -0.000000 20.000000 0.000000 -0.000000 -0.840927 -0.708583 2.459347 -85.598000 7.738605 -5.949346 -1.538785 8.939393 -7.500062 5.816540 -10.739780 1.329288 -28.184042 10.729352 -19.159164 -0.000000 0.000000 10.000000 -0.000000 0.000000 10.000000 -0.000000 0.000000 -0.000000 -19.981762 0.871897 -2.396401 -24.000000 0.000000 -0.000000 -20.000000 0.000000 -0.000000 -0.000000 0.000000 -0.000000 -20.000000 0.000000 -0.000000 -24.000000 0.000000 -0.000000 -20.000000 0.000000 -0.000000 -0.000000 0.000000 -0.000000 -19.974758 -1.025646 2.819379 -24.000000 0.000000 -0.000000 -20.000000 0.000000 -0.000000 -0.000000 0.000000 -0.000000 -19.781452 -3.009481 8.305146 -24.000000 0.000000 -0.000000 -20.000000 0.000000 -0.000000 
